# xmcd
#
# Track frame offsets: 
#        150
#        22795
#        41902
#        63855
#        87204
#        113333
#        137938
#        165080
#        187967
#        209492
#
# Disc length: 3070 seconds
#
# Revision: 0
# Processed by: cddbd v1.5.2PL0 Copyright (c) Steve Scherf et al.
# Submitted via: ExactAudioCopy v1.0b3
#
DISCID=760bfc0a
DTITLE=Manh Quynh, Phi Nhung - Tinh ca Truc Phuong 1
DYEAR=2005
DGENRE=
TTITLE0=Manh Quynh - Buon trong ky niem
TTITLE1=Phi Nhung - Mot nguoi di xa
TTITLE2=Manh Quynh - Ai cho toi tinh yeu
TTITLE3=Phi Nhung - Chin dong song ho hen
TTITLE4=Manh Quynh - Thoi doi
TTITLE5=Phi Nhung - Hai chuyen tau dem
TTITLE6=Manh Quynh - Con duong mang ten em
TTITLE7=Phi Nhung - Chuyen ngay xua
TTITLE8=Manh Quynh - Nhung loi nay cho em
TTITLE9=Phi Nhung - Bong co may
EXTD=
EXTT0=
EXTT1=
EXTT2=
EXTT3=
EXTT4=
EXTT5=
EXTT6=
EXTT7=
EXTT8=
EXTT9=
PLAYORDER=
